<?xml version="1.0" standalone="no"?>
<!DOCTYPE svg PUBLIC "-//W3C//DTD SVG 20010904//EN"
 "http://www.w3.org/TR/2001/REC-SVG-20010904/DTD/svg10.dtd">
<svg version="1.0" xmlns="http://www.w3.org/2000/svg"
 width="185.000000pt" height="185.000000pt" viewBox="0 0 185.000000 185.000000"
 preserveAspectRatio="xMidYMid meet">
<metadata>
Created by potrace 1.14, written by Peter Selinger 2001-2017
</metadata>
<g transform="translate(0.000000,185.000000) scale(0.100000,-0.100000)"
fill="#000000" stroke="none">
<path d="M545 1830 c3 -5 2 -10 -3 -10 -5 0 -15 -13 -22 -30 -7 -16 -17 -30
-22 -30 -5 0 -6 -4 -3 -10 3 -5 1 -10 -5 -10 -6 0 -9 -4 -5 -9 3 -5 -1 -16 -9
-24 -8 -8 -12 -17 -9 -21 4 -3 1 -6 -5 -6 -7 0 -12 -7 -12 -15 0 -8 -5 -15
-11 -15 -5 0 -7 -4 -4 -10 3 -5 1 -10 -4 -10 -6 0 -11 -7 -11 -15 0 -8 -5 -15
-11 -15 -5 0 -8 -4 -4 -9 3 -5 -2 -17 -11 -25 -8 -9 -13 -16 -9 -16 3 0 -3
-13 -14 -29 -12 -16 -21 -33 -21 -38 0 -5 -9 -19 -20 -31 -12 -12 -18 -22 -14
-22 3 0 -1 -11 -10 -24 -17 -27 -44 -73 -89 -156 -17 -30 -33 -57 -36 -60 -3
-3 -14 -22 -24 -43 -14 -32 -17 -69 -17 -256 0 -120 3 -273 7 -340 l6 -122 50
-27 c27 -15 57 -32 66 -37 9 -6 39 -23 66 -40 28 -16 52 -32 55 -35 3 -3 21
-14 40 -24 19 -11 44 -24 54 -30 11 -6 25 -14 30 -19 32 -23 93 -60 134 -83
26 -13 88 -49 137 -79 50 -30 97 -55 105 -55 8 0 30 9 48 20 l32 20 0 315 0
316 26 52 c15 29 29 54 33 57 3 3 19 30 35 60 16 30 32 57 35 60 3 3 24 40 46
83 22 42 43 77 47 77 5 0 8 8 8 19 0 10 7 24 15 31 8 7 15 18 15 25 0 7 7 18
15 25 8 6 13 15 12 18 -4 13 38 72 51 72 17 0 72 -28 95 -48 9 -8 17 -12 17
-9 0 4 30 -13 68 -37 37 -24 77 -47 90 -50 12 -4 22 -12 22 -17 0 -5 7 -9 15
-9 13 0 15 -42 15 -320 0 -176 3 -320 6 -320 4 0 24 10 45 22 l39 22 0 332 c0
254 -3 336 -12 344 -17 15 -83 54 -138 82 -25 12 -46 26 -48 30 -2 4 -10 8
-18 8 -8 0 -14 4 -14 9 0 5 -15 15 -32 22 -18 7 -37 17 -43 22 -9 8 -112 68
-345 205 -98 57 -261 153 -385 225 -38 23 -72 44 -75 47 -6 6 -58 30 -66 30
-3 0 -2 -4 1 -10z"/>
<path d="M1320 696 c-36 -23 -76 -49 -89 -58 l-24 -17 -1 -216 c-1 -219 2
-235 36 -202 17 15 88 57 111 64 9 3 17 9 17 14 0 5 6 9 13 9 9 0 12 50 11
220 -1 121 -3 222 -5 224 -2 1 -33 -16 -69 -38z"/>
</g>
</svg>
